<svg xmlns="http://www.w3.org/2000/svg" xmlns:xlink="http://www.w3.org/1999/xlink" width="500" zoomAndPan="magnify" viewBox="0 0 375 225" height="300" preserveAspectRatio="xMidYMid meet" version="1.0"><defs><g/><clipPath id="41bdcf0df1"><path d="M 107.496094 144.675781 L 142.261719 144.675781 L 142.261719 179.441406 L 107.496094 179.441406 Z M 107.496094 144.675781 " clip-rule="nonzero"/></clipPath><clipPath id="5fad59de52"><path d="M 124.878906 144.675781 C 115.28125 144.675781 107.496094 152.457031 107.496094 162.058594 C 107.496094 171.660156 115.28125 179.441406 124.878906 179.441406 C 134.480469 179.441406 142.261719 171.660156 142.261719 162.058594 C 142.261719 152.457031 134.480469 144.675781 124.878906 144.675781 Z M 124.878906 144.675781 " clip-rule="nonzero"/></clipPath></defs><rect x="-37.5" width="450" fill="#ffffff" y="-22.5" height="270" fill-opacity="1"/><rect x="-37.5" width="450" fill="#9abf80" y="-22.5" height="270" fill-opacity="1"/><g fill="#6a669d" fill-opacity="1"><g transform="translate(145.072825, 178.345983)"><g><path d="M 29.875 1.328125 C 22.75 1.328125 17.378906 -0.363281 13.765625 -3.75 C 10.148438 -7.144531 7.757812 -11.648438 6.59375 -17.265625 C 5.425781 -22.890625 4.84375 -30.097656 4.84375 -38.890625 L 5.171875 -93.96875 C 5.171875 -102.644531 7.367188 -109.738281 11.765625 -115.25 C 16.160156 -120.757812 22.363281 -123.515625 30.375 -123.515625 C 38.28125 -123.515625 44.175781 -120.898438 48.0625 -115.671875 L 48.0625 -144.203125 L 77.28125 -144.203125 L 77.28125 0 L 48.0625 0 L 48.0625 -13.015625 C 46.394531 -8.234375 44.140625 -4.644531 41.296875 -2.25 C 38.460938 0.132812 34.65625 1.328125 29.875 1.328125 Z M 41.0625 -21.53125 C 43.957031 -21.53125 45.847656 -22.945312 46.734375 -25.78125 C 47.617188 -28.625 48.0625 -32.4375 48.0625 -37.21875 L 48.0625 -88.296875 C 48.0625 -91.859375 47.5625 -94.863281 46.5625 -97.3125 C 45.5625 -99.757812 43.78125 -100.984375 41.21875 -100.984375 C 38.332031 -100.984375 36.414062 -99.84375 35.46875 -97.5625 C 34.519531 -95.28125 34.046875 -92.191406 34.046875 -88.296875 L 34.046875 -36.890625 C 34.046875 -26.648438 36.382812 -21.53125 41.0625 -21.53125 Z M 41.0625 -21.53125 "/></g></g></g><g fill="#6a669d" fill-opacity="1"><g transform="translate(219.009391, 178.345983)"><g><path d="M 40.0625 1.328125 C 27.488281 1.328125 18.472656 -2.117188 13.015625 -9.015625 C 7.566406 -15.910156 4.84375 -26.203125 4.84375 -39.890625 L 4.84375 -88.96875 C 4.84375 -100.195312 8.066406 -108.757812 14.515625 -114.65625 C 20.972656 -120.5625 29.988281 -123.515625 41.5625 -123.515625 C 65.039062 -123.515625 76.78125 -112 76.78125 -88.96875 L 76.78125 -80.109375 C 76.78125 -71.210938 76.664062 -63.984375 76.4375 -58.421875 L 34.046875 -58.421875 L 34.046875 -34.71875 C 34.046875 -30.488281 34.488281 -27.175781 35.375 -24.78125 C 36.269531 -22.394531 38.164062 -21.203125 41.0625 -21.203125 C 43.28125 -21.203125 44.863281 -21.867188 45.8125 -23.203125 C 46.757812 -24.535156 47.316406 -26.0625 47.484375 -27.78125 C 47.648438 -29.507812 47.734375 -32.046875 47.734375 -35.390625 L 47.734375 -47.234375 L 76.78125 -47.234375 L 76.78125 -40.21875 C 76.78125 -25.976562 74.023438 -15.492188 68.515625 -8.765625 C 63.003906 -2.035156 53.519531 1.328125 40.0625 1.328125 Z M 47.734375 -72.9375 L 47.734375 -88.625 C 47.734375 -97.414062 45.5625 -101.8125 41.21875 -101.8125 C 36.320312 -101.8125 33.875 -97.414062 33.875 -88.625 L 33.875 -72.9375 Z M 47.734375 -72.9375 "/></g></g></g><g fill="#6a669d" fill-opacity="1"><g transform="translate(291.276948, 178.345983)"><g><path d="M 21.359375 0 L 1.84375 -122.171875 L 31.046875 -122.171875 L 37.046875 -60.421875 L 38.046875 -40.5625 L 39.21875 -60.59375 L 45.90625 -122.171875 L 75.109375 -122.171875 L 55.25 0 Z M 21.359375 0 "/></g></g></g><g fill="#6a669d" fill-opacity="1"><g transform="translate(11.555441, 178.345983)"><g><path d="M 5.84375 -122.171875 L 35.046875 -122.171875 L 35.046875 -108.65625 C 36.492188 -113.4375 39.023438 -117.132812 42.640625 -119.75 C 46.253906 -122.363281 50.734375 -123.671875 56.078125 -123.671875 L 56.078125 -99.3125 C 51.960938 -99.3125 47.425781 -98.722656 42.46875 -97.546875 C 37.519531 -96.378906 35.046875 -95.019531 35.046875 -93.46875 L 35.046875 0 L 5.84375 0 Z M 5.84375 -122.171875 "/></g></g></g><g fill="#6a669d" fill-opacity="1"><g transform="translate(59.789212, 178.345983)"><g><path d="M 5.84375 -122.171875 L 35.046875 -122.171875 L 35.046875 -108.65625 C 36.492188 -113.4375 39.023438 -117.132812 42.640625 -119.75 C 46.253906 -122.363281 50.734375 -123.671875 56.078125 -123.671875 L 56.078125 -99.3125 C 51.960938 -99.3125 47.425781 -98.722656 42.46875 -97.546875 C 37.519531 -96.378906 35.046875 -95.019531 35.046875 -93.46875 L 35.046875 0 L 5.84375 0 Z M 5.84375 -122.171875 "/></g></g></g><g clip-path="url(#41bdcf0df1)"><g clip-path="url(#5fad59de52)"><path fill="#6a669d" d="M 107.496094 144.675781 L 142.261719 144.675781 L 142.261719 179.441406 L 107.496094 179.441406 Z M 107.496094 144.675781 " fill-opacity="1" fill-rule="nonzero"/></g></g></svg>