<svg xmlns="http://www.w3.org/2000/svg" xmlns:xlink="http://www.w3.org/1999/xlink" width="500" zoomAndPan="magnify" viewBox="0 0 375 374.999991" height="500" preserveAspectRatio="xMidYMid meet" version="1.0"><defs><g/><clipPath id="79c167993c"><path d="M 111.855469 217.921875 L 144.726562 217.921875 L 144.726562 250.796875 L 111.855469 250.796875 Z M 111.855469 217.921875 " clip-rule="nonzero"/></clipPath><clipPath id="e5cd55b62c"><path d="M 128.292969 217.921875 C 119.214844 217.921875 111.855469 225.28125 111.855469 234.359375 C 111.855469 243.4375 119.214844 250.796875 128.292969 250.796875 C 137.367188 250.796875 144.726562 243.4375 144.726562 234.359375 C 144.726562 225.28125 137.367188 217.921875 128.292969 217.921875 Z M 128.292969 217.921875 " clip-rule="nonzero"/></clipPath></defs><rect x="-37.5" width="450" fill="#ffffff" y="-37.499999" height="449.999989" fill-opacity="1"/><rect x="-37.5" width="450" fill="#e5e3d4" y="-37.499999" height="449.999989" fill-opacity="1"/><g fill="#6a669d" fill-opacity="1"><g transform="translate(147.383829, 249.759321)"><g><path d="M 28.25 1.265625 C 21.519531 1.265625 16.441406 -0.335938 13.015625 -3.546875 C 9.597656 -6.753906 7.335938 -11.015625 6.234375 -16.328125 C 5.128906 -21.640625 4.578125 -28.453125 4.578125 -36.765625 L 4.890625 -88.84375 C 4.890625 -97.050781 6.96875 -103.757812 11.125 -108.96875 C 15.28125 -114.175781 21.144531 -116.78125 28.71875 -116.78125 C 36.1875 -116.78125 41.765625 -114.304688 45.453125 -109.359375 L 45.453125 -136.34375 L 73.0625 -136.34375 L 73.0625 0 L 45.453125 0 L 45.453125 -12.3125 C 43.867188 -7.789062 41.734375 -4.394531 39.046875 -2.125 C 36.367188 0.132812 32.769531 1.265625 28.25 1.265625 Z M 38.828125 -20.359375 C 41.554688 -20.359375 43.34375 -21.695312 44.1875 -24.375 C 45.03125 -27.0625 45.453125 -30.664062 45.453125 -35.1875 L 45.453125 -83.484375 C 45.453125 -86.847656 44.976562 -89.6875 44.03125 -92 C 43.082031 -94.320312 41.398438 -95.484375 38.984375 -95.484375 C 36.242188 -95.484375 34.425781 -94.398438 33.53125 -92.234375 C 32.632812 -90.078125 32.1875 -87.160156 32.1875 -83.484375 L 32.1875 -34.875 C 32.1875 -25.195312 34.398438 -20.359375 38.828125 -20.359375 Z M 38.828125 -20.359375 "/></g></g></g><g fill="#6a669d" fill-opacity="1"><g transform="translate(217.293059, 249.759321)"><g><path d="M 37.875 1.265625 C 25.988281 1.265625 17.46875 -1.992188 12.3125 -8.515625 C 7.15625 -15.046875 4.578125 -24.78125 4.578125 -37.71875 L 4.578125 -84.109375 C 4.578125 -94.734375 7.628906 -102.832031 13.734375 -108.40625 C 19.835938 -113.988281 28.359375 -116.78125 39.296875 -116.78125 C 61.492188 -116.78125 72.59375 -105.890625 72.59375 -84.109375 L 72.59375 -75.75 C 72.59375 -67.332031 72.488281 -60.492188 72.28125 -55.234375 L 32.1875 -55.234375 L 32.1875 -32.828125 C 32.1875 -28.828125 32.609375 -25.695312 33.453125 -23.4375 C 34.296875 -21.175781 36.085938 -20.046875 38.828125 -20.046875 C 40.929688 -20.046875 42.425781 -20.675781 43.3125 -21.9375 C 44.207031 -23.195312 44.734375 -24.640625 44.890625 -26.265625 C 45.054688 -27.898438 45.140625 -30.296875 45.140625 -33.453125 L 45.140625 -44.65625 L 72.59375 -44.65625 L 72.59375 -38.03125 C 72.59375 -24.5625 69.988281 -14.644531 64.78125 -8.28125 C 59.570312 -1.914062 50.601562 1.265625 37.875 1.265625 Z M 45.140625 -68.96875 L 45.140625 -83.796875 C 45.140625 -92.109375 43.085938 -96.265625 38.984375 -96.265625 C 34.347656 -96.265625 32.03125 -92.109375 32.03125 -83.796875 L 32.03125 -68.96875 Z M 45.140625 -68.96875 "/></g></g></g><g fill="#6a669d" fill-opacity="1"><g transform="translate(285.624192, 249.759321)"><g><path d="M 20.203125 0 L 1.734375 -115.515625 L 29.359375 -115.515625 L 35.03125 -57.125 L 35.984375 -38.34375 L 37.09375 -57.28125 L 43.40625 -115.515625 L 71.015625 -115.515625 L 52.234375 0 Z M 20.203125 0 "/></g></g></g><g fill="#6a669d" fill-opacity="1"><g transform="translate(21.139161, 249.759321)"><g><path d="M 5.53125 -115.515625 L 33.140625 -115.515625 L 33.140625 -102.734375 C 34.503906 -107.253906 36.894531 -110.75 40.3125 -113.21875 C 43.738281 -115.695312 47.976562 -116.9375 53.03125 -116.9375 L 53.03125 -93.90625 C 49.132812 -93.90625 44.84375 -93.347656 40.15625 -92.234375 C 35.476562 -91.128906 33.140625 -89.84375 33.140625 -88.375 L 33.140625 0 L 5.53125 0 Z M 5.53125 -115.515625 "/></g></g></g><g fill="#6a669d" fill-opacity="1"><g transform="translate(66.745631, 249.759321)"><g><path d="M 5.53125 -115.515625 L 33.140625 -115.515625 L 33.140625 -102.734375 C 34.503906 -107.253906 36.894531 -110.75 40.3125 -113.21875 C 43.738281 -115.695312 47.976562 -116.9375 53.03125 -116.9375 L 53.03125 -93.90625 C 49.132812 -93.90625 44.84375 -93.347656 40.15625 -92.234375 C 35.476562 -91.128906 33.140625 -89.84375 33.140625 -88.375 L 33.140625 0 L 5.53125 0 Z M 5.53125 -115.515625 "/></g></g></g><g clip-path="url(#79c167993c)"><g clip-path="url(#e5cd55b62c)"><path fill="#6a669d" d="M 111.855469 217.921875 L 144.726562 217.921875 L 144.726562 250.796875 L 111.855469 250.796875 Z M 111.855469 217.921875 " fill-opacity="1" fill-rule="nonzero"/></g></g></svg>