<svg xmlns="http://www.w3.org/2000/svg" xmlns:xlink="http://www.w3.org/1999/xlink" width="300" zoomAndPan="magnify" viewBox="0 0 224.87999 60" height="80" preserveAspectRatio="xMidYMid meet" version="1.0"><defs><g/></defs><g fill="#64748b" fill-opacity="1"><g transform="translate(2.073112, 49.150932)"><g><path d="M 17.21875 -19.09375 C 16.25 -19.09375 15.289062 -19.210938 14.34375 -19.453125 C 13.394531 -19.691406 12.242188 -20.039062 10.890625 -20.5 C 10.222656 -20.71875 9.566406 -20.921875 8.921875 -21.109375 C 8.273438 -21.304688 7.757812 -21.40625 7.375 -21.40625 C 6.414062 -21.40625 5.628906 -20.828125 5.015625 -19.671875 L 1.15625 -21.703125 C 1.957031 -23.566406 2.800781 -24.976562 3.6875 -25.9375 C 4.570312 -26.90625 5.847656 -27.390625 7.515625 -27.390625 C 8.835938 -27.390625 10.007812 -27.257812 11.03125 -27 C 12.0625 -26.738281 13.140625 -26.398438 14.265625 -25.984375 C 14.785156 -25.796875 15.273438 -25.628906 15.734375 -25.484375 C 16.203125 -25.335938 16.613281 -25.265625 16.96875 -25.265625 C 17.9375 -25.265625 18.722656 -25.910156 19.328125 -27.203125 L 23.625 -25.796875 C 23.082031 -24.316406 22.578125 -23.125 22.109375 -22.21875 C 21.640625 -21.320312 21.007812 -20.578125 20.21875 -19.984375 C 19.4375 -19.390625 18.4375 -19.09375 17.21875 -19.09375 Z M 17.21875 -19.09375 "/></g></g></g><g fill="#64748b" fill-opacity="1"><g transform="translate(25.845779, 49.150932)"><g><path d="M 1.59375 -23 L 1.59375 -29.984375 L 10.03125 -29.984375 L 10.03125 -23 Z M 1.59375 -5.59375 L 1.59375 -12.578125 L 10.03125 -12.578125 L 10.03125 -5.59375 Z M 1.59375 -5.59375 "/></g></g></g><g fill="#64748b" fill-opacity="1"><g transform="translate(37.515123, 49.150932)"><g><path d="M 9.0625 -0.875 C 6.132812 -1.1875 4.023438 -2.195312 2.734375 -3.90625 C 1.453125 -5.613281 0.8125 -8.132812 0.8125 -11.46875 L 0.8125 -12.78125 L 9.015625 -12.78125 L 9.015625 -11.8125 C 9.015625 -9.375 9.738281 -8.15625 11.1875 -8.15625 C 11.832031 -8.15625 12.320312 -8.398438 12.65625 -8.890625 C 12.988281 -9.390625 13.15625 -10.007812 13.15625 -10.75 C 13.15625 -11.300781 12.675781 -12.101562 11.71875 -13.15625 L 4.96875 -20.015625 C 2.457031 -22.453125 1.203125 -25.132812 1.203125 -28.0625 C 1.203125 -30.34375 1.945312 -32.242188 3.4375 -33.765625 C 4.9375 -35.296875 6.8125 -36.269531 9.0625 -36.6875 L 9.0625 -39.546875 L 13.109375 -39.546875 L 13.109375 -36.75 C 15.785156 -36.425781 17.820312 -35.332031 19.21875 -33.46875 C 20.613281 -31.601562 21.3125 -29.125 21.3125 -26.03125 L 12.921875 -26.03125 L 12.875 -28.015625 C 12.84375 -28.429688 12.632812 -28.804688 12.25 -29.140625 C 11.863281 -29.484375 11.429688 -29.65625 10.953125 -29.65625 C 10.398438 -29.65625 9.929688 -29.484375 9.546875 -29.140625 C 9.160156 -28.804688 8.96875 -28.367188 8.96875 -27.828125 C 8.96875 -27.054688 9.738281 -25.894531 11.28125 -24.34375 L 17.890625 -17.84375 C 18.953125 -16.8125 19.8125 -15.601562 20.46875 -14.21875 C 21.125 -12.84375 21.453125 -11.347656 21.453125 -9.734375 C 21.453125 -7.203125 20.679688 -5.15625 19.140625 -3.59375 C 17.597656 -2.03125 15.585938 -1.101562 13.109375 -0.8125 L 13.109375 2.65625 L 9.0625 2.65625 Z M 9.0625 -0.875 "/></g></g></g><g fill="#64748b" fill-opacity="1"><g transform="translate(59.792948, 49.150932)"><g><path d="M 1.6875 -35.296875 L 10.125 -35.296875 L 10.125 -31.390625 C 10.539062 -32.773438 11.269531 -33.84375 12.3125 -34.59375 C 13.363281 -35.351562 14.660156 -35.734375 16.203125 -35.734375 L 16.203125 -28.6875 C 15.015625 -28.6875 13.703125 -28.515625 12.265625 -28.171875 C 10.835938 -27.835938 10.125 -27.445312 10.125 -27 L 10.125 0 L 1.6875 0 Z M 1.6875 -35.296875 "/></g></g></g><g fill="#64748b" fill-opacity="1"><g transform="translate(76.380774, 49.150932)"><g><path d="M 1.6875 -35.296875 L 10.125 -35.296875 L 10.125 -31.390625 C 10.539062 -32.773438 11.269531 -33.84375 12.3125 -34.59375 C 13.363281 -35.351562 14.660156 -35.734375 16.203125 -35.734375 L 16.203125 -28.6875 C 15.015625 -28.6875 13.703125 -28.515625 12.265625 -28.171875 C 10.835938 -27.835938 10.125 -27.445312 10.125 -27 L 10.125 0 L 1.6875 0 Z M 1.6875 -35.296875 "/></g></g></g><g fill="#64748b" fill-opacity="1"><g transform="translate(92.968601, 49.150932)"><g><path d="M 8.09375 0.390625 C 5.363281 0.390625 3.492188 -0.515625 2.484375 -2.328125 C 1.472656 -4.148438 0.96875 -6.75 0.96875 -10.125 C 0.96875 -12.882812 1.328125 -15.003906 2.046875 -16.484375 C 2.773438 -17.960938 3.78125 -19.046875 5.0625 -19.734375 C 6.34375 -20.429688 8.304688 -21.195312 10.953125 -22.03125 L 13.265625 -22.8125 L 13.265625 -26.421875 C 13.265625 -27.359375 13.078125 -28.070312 12.703125 -28.5625 C 12.335938 -29.0625 11.894531 -29.3125 11.375 -29.3125 C 10.925781 -29.3125 10.53125 -29.101562 10.1875 -28.6875 C 9.851562 -28.269531 9.6875 -27.707031 9.6875 -27 L 9.6875 -24.875 L 1.5 -24.875 L 1.5 -26.03125 C 1.5 -29.507812 2.304688 -31.988281 3.921875 -33.46875 C 5.546875 -34.945312 8.191406 -35.6875 11.859375 -35.6875 C 14.785156 -35.6875 17.164062 -34.921875 19 -33.390625 C 20.832031 -31.859375 21.75 -29.695312 21.75 -26.90625 L 21.75 0 L 13.359375 0 L 13.359375 -4.1875 C 12.941406 -2.75 12.273438 -1.625 11.359375 -0.8125 C 10.441406 -0.0078125 9.351562 0.390625 8.09375 0.390625 Z M 11.421875 -6.171875 C 12.066406 -6.171875 12.523438 -6.4375 12.796875 -6.96875 C 13.078125 -7.5 13.21875 -8.148438 13.21875 -8.921875 L 13.21875 -18.75 C 11.957031 -18.269531 11.03125 -17.660156 10.4375 -16.921875 C 9.84375 -16.179688 9.546875 -15.15625 9.546875 -13.84375 L 9.546875 -9.3125 C 9.546875 -7.21875 10.171875 -6.171875 11.421875 -6.171875 Z M 11.421875 -6.171875 "/></g></g></g><g fill="#64748b" fill-opacity="1"><g transform="translate(116.259054, 49.150932)"><g><path d="M 1.6875 -35.296875 L 9.9375 -35.296875 L 9.9375 -31.203125 C 10.320312 -32.710938 10.976562 -33.835938 11.90625 -34.578125 C 12.84375 -35.316406 14.160156 -35.6875 15.859375 -35.6875 C 17.242188 -35.6875 18.441406 -35.367188 19.453125 -34.734375 C 20.460938 -34.109375 21.179688 -33.25 21.609375 -32.15625 C 22.304688 -33.382812 23.085938 -34.28125 23.953125 -34.84375 C 24.828125 -35.40625 26.035156 -35.6875 27.578125 -35.6875 C 30.347656 -35.6875 32.269531 -34.84375 33.34375 -33.15625 C 34.414062 -31.46875 34.953125 -29.015625 34.953125 -25.796875 L 34.859375 0 L 26.375 0 L 26.375 -25.9375 C 26.375 -28.21875 25.796875 -29.359375 24.640625 -29.359375 C 23.835938 -29.359375 23.257812 -28.960938 22.90625 -28.171875 C 22.550781 -27.390625 22.375 -26.453125 22.375 -25.359375 L 22.375 0 L 13.9375 0 L 13.9375 -25.9375 C 13.9375 -26.9375 13.832031 -27.738281 13.625 -28.34375 C 13.414062 -28.957031 12.972656 -29.265625 12.296875 -29.265625 C 11.429688 -29.265625 10.820312 -28.835938 10.46875 -27.984375 C 10.113281 -27.140625 9.9375 -26.117188 9.9375 -24.921875 L 9.9375 0 L 1.6875 0 Z M 1.6875 -35.296875 "/></g></g></g><g fill="#64748b" fill-opacity="1"><g transform="translate(152.810126, 49.150932)"><g><path d="M 11.375 0.390625 C 4.40625 0.390625 0.921875 -3.144531 0.921875 -10.21875 L 0.96875 -13.015625 L 9.40625 -13.015625 L 9.453125 -8.875 C 9.453125 -8.039062 9.613281 -7.40625 9.9375 -6.96875 C 10.257812 -6.53125 10.789062 -6.3125 11.53125 -6.3125 C 12.65625 -6.3125 13.21875 -7.226562 13.21875 -9.0625 C 13.21875 -10.414062 12.953125 -11.476562 12.421875 -12.25 C 11.890625 -13.019531 11.046875 -13.835938 9.890625 -14.703125 L 5.40625 -18.171875 C 3.863281 -19.367188 2.753906 -20.597656 2.078125 -21.859375 C 1.398438 -23.128906 1.0625 -24.925781 1.0625 -27.25 C 1.0625 -29.039062 1.535156 -30.570312 2.484375 -31.84375 C 3.429688 -33.113281 4.691406 -34.070312 6.265625 -34.71875 C 7.835938 -35.363281 9.59375 -35.6875 11.53125 -35.6875 C 18.375 -35.6875 21.796875 -32.273438 21.796875 -25.453125 L 21.796875 -24.78125 L 13.0625 -24.78125 L 13.0625 -26.140625 C 13.0625 -26.972656 12.925781 -27.6875 12.65625 -28.28125 C 12.382812 -28.875 11.925781 -29.171875 11.28125 -29.171875 C 10.707031 -29.171875 10.265625 -29 9.953125 -28.65625 C 9.648438 -28.320312 9.5 -27.867188 9.5 -27.296875 C 9.5 -26.003906 10 -25.003906 11 -24.296875 L 16.203125 -20.5 C 18.066406 -19.113281 19.492188 -17.609375 20.484375 -15.984375 C 21.484375 -14.359375 21.984375 -12.3125 21.984375 -9.84375 C 21.984375 -6.5625 21.050781 -4.035156 19.1875 -2.265625 C 17.320312 -0.492188 14.71875 0.390625 11.375 0.390625 Z M 11.375 0.390625 "/></g></g></g><g fill="#64748b" fill-opacity="1"><g transform="translate(175.714822, 49.150932)"><g><path d="M 1.640625 -37.65625 L 1.640625 -43.546875 L 10.078125 -43.546875 L 10.078125 -37.65625 Z M 1.640625 0 L 1.640625 -35.296875 L 10.078125 -35.296875 L 10.078125 0 Z M 1.640625 0 "/></g></g></g><g fill="#64748b" fill-opacity="1"><g transform="translate(187.432376, 49.150932)"><g><path d="M 1.6875 -35.296875 L 10.125 -35.296875 L 10.125 -30.8125 C 10.476562 -32.257812 11.085938 -33.429688 11.953125 -34.328125 C 12.828125 -35.234375 13.988281 -35.6875 15.4375 -35.6875 C 17.8125 -35.6875 19.566406 -34.953125 20.703125 -33.484375 C 21.847656 -32.023438 22.421875 -29.945312 22.421875 -27.25 L 22.421875 0 L 14.125 0 L 14.125 -26.375 C 14.125 -27.144531 13.972656 -27.800781 13.671875 -28.34375 C 13.367188 -28.894531 12.894531 -29.171875 12.25 -29.171875 C 11.382812 -29.171875 10.8125 -28.773438 10.53125 -27.984375 C 10.257812 -27.203125 10.125 -26.148438 10.125 -24.828125 L 10.125 0 L 1.6875 0 Z M 1.6875 -35.296875 "/></g></g></g><g fill="#64748b" fill-opacity="1"><g transform="translate(211.504311, 49.150932)"><g/></g></g></svg>